<svg width="16" height="16" viewBox="0 0 16 16" fill="none" xmlns="http://www.w3.org/2000/svg">
<path d="M2.75 5.5V10.5M6.75 8.25H11.25C12.3546 8.25 13.25 7.3546 13.25 6.25V5.5M5.25 3C5.25 4.24264 4.24264 5.25 3 5.25C1.75736 5.25 0.75 4.24264 0.75 3C0.75 1.75736 1.75736 0.75 3 0.75C4.24264 0.75 5.25 1.75736 5.25 3ZM15.25 3C15.25 4.24264 14.2426 5.25 13 5.25C11.7574 5.25 10.75 4.24264 10.75 3C10.75 1.75736 11.7574 0.75 13 0.75C14.2426 0.75 15.25 1.75736 15.25 3ZM5.25 13C5.25 14.2426 4.24264 15.25 3 15.25C1.75736 15.25 0.75 14.2426 0.75 13C0.75 11.7574 1.75736 10.75 3 10.75C4.24264 10.75 5.25 11.7574 5.25 13Z" stroke="#009540" stroke-width="1.5" stroke-linecap="round" stroke-linejoin="round"/>
</svg>
